<mxfile host="app.diagrams.net" modified="2023-10-17T20:39:24.969Z" agent="Mozilla/5.0 (Windows NT 10.0; Win64; x64) AppleWebKit/537.36 (KHTML, like Gecko) Chrome/117.0.0.0 Safari/537.36" version="22.0.4" etag="51D5zLikLsHeiiGC6xSF" type="github">
  <diagram name="Page-1" id="VZ9xGFZJLHHt_ai7zWpr">
    <mxGraphModel>
      <root>
        <mxCell id="0" />
        <mxCell id="1" parent="0" />
      </root>
    </mxGraphModel>
  </diagram>
</mxfile>
